<svg xmlns="http://www.w3.org/2000/svg" width="28.152" height="23.078" viewBox="0 0 28.152 23.078">
  <g id="cancellation1" transform="translate(0.3 465.92)">
    <path id="Path_22" data-name="Path 22" d="M1.613-465.848a2.475,2.475,0,0,0-1.875,2.111l-.038.286H.536c.709,0,.83-.011.83-.083a.924.924,0,0,1,.429-.621c.2-.115.28-.121,1.27-.121.946,0,1.078.011,1.27.11a.914.914,0,0,1,.44.632c0,.044.643,2.672,1.435,5.839s1.49,6,1.556,6.3l.132.539-.225.115a2.609,2.609,0,0,0-.533.423,2.4,2.4,0,0,0,.027,3.442,2.563,2.563,0,0,0,2.111.742h.594l-.071.286a2.363,2.363,0,0,0,.665,2.271,2.438,2.438,0,0,0,2.821.478,2.473,2.473,0,0,0,1.309-2.749l-.071-.286h5.245l-.071.286a2.363,2.363,0,0,0,.665,2.271,2.452,2.452,0,0,0,4.162-1.342,2.473,2.473,0,0,0-1.924-2.8c-.2-.044-2.3-.06-7.087-.06H8.723L8.5-447.9a.869.869,0,0,1-.429-.7.869.869,0,0,1,.429-.7l.22-.121H24.1l1.864-6.532c1.023-3.59,1.875-6.56,1.886-6.6s-2.111-.066-10.562-.066c-5.823,0-10.59-.011-10.59-.033a16.066,16.066,0,0,0-.583-1.958,2.586,2.586,0,0,0-1.661-1.248A15.8,15.8,0,0,0,1.613-465.848Zm15.577,7.769.863-.863.594.588.588.594-.863.863-.869.869.869.869.863.863-.588.594-.594.588-.863-.863-.869-.869-.869.869-.863.863L14-453.7l-.588-.594.863-.863.869-.869-.869-.869-.863-.863.588-.594.594-.588.863.863.869.869ZM12.583-446.02a.869.869,0,0,1,.44.72.892.892,0,0,1-.83.819.9.9,0,0,1-.819-.825.881.881,0,0,1,.429-.709A.777.777,0,0,1,12.583-446.02Zm9.9,0a.869.869,0,0,1,.44.72.892.892,0,0,1-.83.819.9.9,0,0,1-.819-.825.881.881,0,0,1,.429-.709A.777.777,0,0,1,22.48-446.02Z" transform="translate(0 0)" fill="#00c9ff"/>
  </g>
</svg>
