<svg xmlns="http://www.w3.org/2000/svg" width="32.187" height="26.385" viewBox="0 0 32.187 26.385">
  <g id="cancellation" transform="translate(0.3 465.92)">
    <path id="Path_22" data-name="Path 22" d="M1.888-465.837a2.829,2.829,0,0,0-2.144,2.414L-.3-463.1H.656c.811,0,.949-.013.949-.094a1.057,1.057,0,0,1,.49-.71c.233-.132.321-.138,1.452-.138,1.081,0,1.232.013,1.452.126a1.045,1.045,0,0,1,.5.723c0,.05.736,3.055,1.641,6.676s1.7,6.865,1.779,7.2l.151.616-.258.132a2.979,2.979,0,0,0-.61.484,2.748,2.748,0,0,0,.031,3.935,2.931,2.931,0,0,0,2.414.849h.679l-.082.327a2.7,2.7,0,0,0,.761,2.6,2.788,2.788,0,0,0,3.225.547,2.827,2.827,0,0,0,1.5-3.143l-.082-.327h6l-.082.327a2.7,2.7,0,0,0,.761,2.6,2.8,2.8,0,0,0,4.759-1.534,2.827,2.827,0,0,0-2.2-3.206c-.233-.05-2.634-.069-8.1-.069H10.016l-.251-.138a.993.993,0,0,1-.49-.8.993.993,0,0,1,.49-.8l.251-.138H27.6l2.131-7.468c1.169-4.105,2.144-7.5,2.156-7.544s-2.414-.075-12.076-.075c-6.657,0-12.108-.013-12.108-.038a18.367,18.367,0,0,0-.666-2.238,2.956,2.956,0,0,0-1.9-1.427A18.071,18.071,0,0,0,1.888-465.837ZM19.7-456.954l.987-.987.679.673.673.679-.987.987-.993.993.993.993.987.987-.673.679-.679.673-.987-.987-.993-.993-.993.993-.987.987-.679-.673-.673-.679.987-.987.993-.993-.993-.993-.987-.987.673-.679.679-.673.987.987.993.993Zm-5.268,13.786a.994.994,0,0,1,.5.824,1.019,1.019,0,0,1-.949.937,1.024,1.024,0,0,1-.937-.943,1.007,1.007,0,0,1,.49-.811A.889.889,0,0,1,14.429-443.168Zm11.316,0a.994.994,0,0,1,.5.824,1.019,1.019,0,0,1-.949.937,1.024,1.024,0,0,1-.937-.943,1.007,1.007,0,0,1,.49-.811A.889.889,0,0,1,25.745-443.168Z" transform="translate(0 0)" fill="#fff"/>
  </g>
</svg>
