<svg xmlns="http://www.w3.org/2000/svg" width="36.333" height="21.488" viewBox="0 0 36.333 21.488">
  <g id="dlvry" transform="translate(0 408)">
    <path id="Path_7" data-name="Path 7" d="M3.96-407.851c-.483.248-.554.5-.554,1.98v1.277H2.661a2.066,2.066,0,0,0-1.029.142,1.12,1.12,0,0,0-.568.923,1.12,1.12,0,0,0,.568.923c.263.135.412.142,3.186.142A14.88,14.88,0,0,1,8-402.358a1.027,1.027,0,0,1,.064,1.767c-.2.149-.284.149-3.761.185-3.236.035-3.584.05-3.789.163a1.178,1.178,0,0,0-.518.9,1.12,1.12,0,0,0,.568.923c.27.135.412.142,5.3.142h5.024l.277.163a1.029,1.029,0,0,1,0,1.8l-.277.163H5.869c-4.889,0-5.031.007-5.3.142a1.12,1.12,0,0,0-.568.923,1.12,1.12,0,0,0,.568.923c.248.128.419.142,1.561.142H3.406v1.7c0,2.5,0,2.5,1.973,2.555l1.228.035.156.461a3.679,3.679,0,0,0,.972,1.561,4.06,4.06,0,0,0,5.748,0,3.679,3.679,0,0,0,.972-1.561l.156-.461h10.8l.156.461a3.679,3.679,0,0,0,.972,1.561,4.06,4.06,0,0,0,5.748,0,3.679,3.679,0,0,0,.972-1.561l.156-.461,1.086-.035c1.249-.043,1.455-.114,1.689-.568.135-.27.142-.412.142-3.818,0-3.846-.014-3.988-.4-4.719a3.49,3.49,0,0,0-1.4-1.249c-.887-.426-.944-.433-5.642-.433H24.61l-.284-.156c-.561-.319-.554-.255-.554-4V-408H14C4.407-407.993,4.215-407.993,3.96-407.851Zm7.465,15.5a2.124,2.124,0,0,1,1.135,1.774,2.132,2.132,0,0,1-1.128,1.774,2.061,2.061,0,0,1-2.583-.915,2.317,2.317,0,0,1,0-1.717,2.415,2.415,0,0,1,1.15-.986A2.309,2.309,0,0,1,11.425-392.353Zm18.805,0a2.124,2.124,0,0,1,1.135,1.774,2.132,2.132,0,0,1-1.128,1.774,2.061,2.061,0,0,1-2.583-.915,2.317,2.317,0,0,1,0-1.717,2.415,2.415,0,0,1,1.15-.986A2.309,2.309,0,0,1,30.231-392.353Z" fill="#fff"/>
    <path id="Path_8" data-name="Path 8" d="M365-402.445v2.555h2.91c1.6,0,2.91-.021,2.91-.043a18.7,18.7,0,0,0-1.306-2.051,7.313,7.313,0,0,0-2.711-2.37,10.658,10.658,0,0,0-1.774-.646C365.014-405,365-403.85,365-402.445Z" transform="translate(-339.098 -2.787)" fill="#fff"/>
  </g>
</svg>
