<svg xmlns="http://www.w3.org/2000/svg" width="34" height="34" viewBox="0 0 34 34">
  <g id="next1" transform="translate(-152 -329)">
    <rect id="Rectangle_1" data-name="Rectangle 1" width="34" height="34" rx="7" transform="translate(152 329)" fill="#00c9ff"/>
    <g id="Layer-1_33_" data-name="Layer-1 (33)" transform="translate(157 339)">
      <path id="Path_1" data-name="Path 1" d="M135.206-355.6v1.55H129v7.425h6.206l.008,1.546.011,1.546,4.181-3.4c2.3-1.87,4.169-3.411,4.15-3.427s-1.873-1.523-4.124-3.351-4.124-3.351-4.158-3.381C135.21-357.147,135.206-357.075,135.206-355.6Z" transform="translate(-119.181 357.105)" fill="#fff"/>
      <path id="Path_3" data-name="Path 3" d="M65.461-276.592a.76.76,0,0,0-.344.24L65-276.2v3.229c0,3.571-.015,3.392.339,3.59a.783.783,0,0,0,.488.11.811.811,0,0,0,.7-.286l.113-.126v-3.271c0-3.606.021-3.392-.324-3.587A1.007,1.007,0,0,0,65.461-276.592Z" transform="translate(-58.479 279.726)" fill="#fff"/>
      <path id="Path_4" data-name="Path 4" d="M65.461-276.592a.76.76,0,0,0-.344.24L65-276.2v3.229c0,3.571-.015,3.392.339,3.59a.783.783,0,0,0,.488.11.811.811,0,0,0,.7-.286l.113-.126v-3.271c0-3.606.021-3.392-.324-3.587A1.007,1.007,0,0,0,65.461-276.592Z" transform="translate(-61.739 279.75)" fill="#fff"/>
      <path id="Path_5" data-name="Path 5" d="M65.461-276.592a.76.76,0,0,0-.344.24L65-276.2v3.229c0,3.571-.015,3.392.339,3.59a.783.783,0,0,0,.488.11.811.811,0,0,0,.7-.286l.113-.126v-3.271c0-3.606.021-3.392-.324-3.587A1.007,1.007,0,0,0,65.461-276.592Z" transform="translate(-64.998 279.726)" fill="#fff"/>
    </g>
  </g>
</svg>
