<svg xmlns="http://www.w3.org/2000/svg" width="112.212" height="144.202" viewBox="0 0 112.212 144.202">
  <g id="no_address" transform="translate(-60.096 507.952)">
    <path id="Path_430" data-name="Path 430" d="M110.222-507.651a58.686,58.686,0,0,0-11.629,2.578A56.309,56.309,0,0,0,60.355-457.3c-1.088,10.741,1.2,20.48,7.877,33.856,7.934,15.782,23.258,36.09,40.587,53.676l5.9,6.015H117.7l5.9-6.015c21.883-22.226,39.212-46.974,45.456-64.933,4.21-12.059,4.325-22.886.4-34.744A56.341,56.341,0,0,0,110.222-507.651Zm14.064,16.584a37.911,37.911,0,0,1,20.136,11.027,35.774,35.774,0,0,1,7.676,10.455,36.765,36.765,0,0,1,4.039,17.758,38.508,38.508,0,0,1-6.846,22.628,54.764,54.764,0,0,1-10.455,10.455,40.126,40.126,0,0,1-58.288-14.808,42.656,42.656,0,0,1-3.638-10.34,47.6,47.6,0,0,1,0-15.868,39.075,39.075,0,0,1,10.34-19.62,37.322,37.322,0,0,1,9.051-7.189,42.23,42.23,0,0,1,14.808-5.041A52.356,52.356,0,0,1,124.286-491.066Z" transform="translate(0 0)" fill="#00c9ff"/>
    <path id="Path_431" data-name="Path 431" d="M183.711-411.651c-.573.229-25.893,23.115-26.781,24.2a3.4,3.4,0,0,0-.43,1.89,2.507,2.507,0,0,0,.945,2.32c.888.888,1.06.945,3.351,1.06l2.406.086.086,11.572.086,11.572.945.917.916.945H176.12l.917-.945.945-.917.143-7.734.143-7.733.945-.917.917-.945h9.739l.917.945.945.917.143,7.733.143,7.734.945.917.917.945h10.884l.917-.945.945-.917.086-11.572.086-11.572,2.406-.086c2.291-.114,2.463-.172,3.351-1.06a2.507,2.507,0,0,0,.945-2.32,2.913,2.913,0,0,0-.573-2.062c-1.4-1.576-26.065-23.8-26.695-24.06A3.333,3.333,0,0,0,183.711-411.651Z" transform="translate(-68.791 -68.531)" fill="#000025"/>
  </g>
</svg>
