<svg xmlns="http://www.w3.org/2000/svg" width="126.615" height="143.5" viewBox="0 0 126.615 143.5">
  <g id="notsuff_balance" transform="translate(-401.295 -575)">
    <g id="wallet-balance-1824249-1545936" transform="translate(401.295 575)">
      <path id="Path_432" data-name="Path 432" d="M83.617-511.323a27.127,27.127,0,0,0-15.076,8.17,27.864,27.864,0,0,0-6.934,12.633c-.926,3.678-.59,11.342.618,14.486.2.477-.365.505-9.461.505-7.749,0-9.994.084-11.314.421a14.657,14.657,0,0,0-10.275,9.4l-.674,1.825V-376l.786,1.684a12,12,0,0,0,5.362,5.39l1.713.786H149.254l1.713-.786a12,12,0,0,0,5.362-5.39l.786-1.684v-66.817l-.786-1.713a11.168,11.168,0,0,0-8.45-6.2l-1.544-.168-.084-8.31-.084-8.31-.786-1.713a12,12,0,0,0-5.39-5.362l-1.684-.786-12.016-.084c-11.23-.084-12.016-.112-11.847-.562,1.207-3.116,1.544-10.809.618-14.486a29.165,29.165,0,0,0-10.752-16.058,32.686,32.686,0,0,0-9.377-4.323A32.167,32.167,0,0,0,83.617-511.323Zm10.3,4.492A23.265,23.265,0,0,1,109.361-494a19.317,19.317,0,0,1,1.965,9.77,18.71,18.71,0,0,1-1.937,9.461,23.522,23.522,0,0,1-10.444,11.005c-1.151.561-1.544.59-10.612.59s-9.461-.028-10.612-.59A25.874,25.874,0,0,1,69.1-471.4a28.679,28.679,0,0,1-3.2-7.075,26.5,26.5,0,0,1-.309-10.107,23.076,23.076,0,0,1,18.529-18.557A28.635,28.635,0,0,1,93.92-506.831Zm-28.271,37.7a30.43,30.43,0,0,0,3.313,4.071l1.909,1.881H65.2a37.929,37.929,0,0,0-6.176.281,2.192,2.192,0,0,0-.842,1.095,1.545,1.545,0,0,0,.084,1.656,2.685,2.685,0,0,0,.87,1.011c.618.225,57.777.225,58.395,0a2.685,2.685,0,0,0,.87-1.011,1.545,1.545,0,0,0,.084-1.656,2.192,2.192,0,0,0-.842-1.095,37.929,37.929,0,0,0-6.176-.281H105.8l1.909-1.881a30.428,30.428,0,0,0,3.313-4.071l1.46-2.19h12.072c7.861,0,12.465.112,13.195.309a7.607,7.607,0,0,1,4.043,4.1,65.769,65.769,0,0,1,.309,8.591v7.5l-49.888-.056-49.916-.084-1.6-.758a10.647,10.647,0,0,1-5.081-4.969,7.316,7.316,0,0,1-.9-4.38,7.779,7.779,0,0,1,.73-4.1,10.6,10.6,0,0,1,6.513-5.727c.87-.281,3.818-.393,11.707-.393l10.528-.028ZM38.333-448.212c3.453,1.684-.028,1.6,57.019,1.6,37.311,0,52.527.084,53.341.309a7.34,7.34,0,0,1,4.043,4.1c.225.786.281,4.773.253,12.325l-.084,11.2-8.142.14-8.142.14-1.4.758a11.094,11.094,0,0,0-4.436,4.66,7.668,7.668,0,0,0-.618,3.706,7.668,7.668,0,0,0,.618,3.706,11.094,11.094,0,0,0,4.436,4.66l1.4.758,8.142.14,8.142.14v23.386l-.842,1.207a10.4,10.4,0,0,1-2.077,2.077l-1.207.842H38.838l-1.207-.842a10.4,10.4,0,0,1-2.077-2.077l-.842-1.207-.084-37.2-.056-37.2,1.123.955A13.78,13.78,0,0,0,38.333-448.212ZM152.9-409.272v5.194l-6.289.084c-8.535.084-9.938-.2-11.454-2.471a5.065,5.065,0,0,1,3.285-7.833c.7-.14,4.239-.225,7.861-.2l6.6.028Z" transform="translate(-30.5 511.644)" fill="#00c9ff"/>
      <path id="Path_433" data-name="Path 433" d="M214.461-465.464a8.353,8.353,0,0,0-5.9,4.969c-1.207,3.229-.421,5.166,1.965,4.913a2.822,2.822,0,0,0,1.684-2.218,4.389,4.389,0,0,1,1.825-3.032,4.145,4.145,0,0,1,1.965-.477c4.352,0,5.166,6.064,1.011,7.412-2.611.87-3.116,1.853-3.116,6.064,0,2.864.056,3.116.646,3.678a2.058,2.058,0,0,0,2.948-.028c.533-.561.618-.983.618-3.088v-2.443l1.235-.59a9.49,9.49,0,0,0,3.9-3.762,9.836,9.836,0,0,0,0-7.047C221.592-464.2,217.634-466.166,214.461-465.464Z" transform="translate(-158.173 478.531)" fill="#000025"/>
      <path id="Path_434" data-name="Path 434" d="M230.638-378.565c-2.218,1.067-.674,4.52,1.572,3.594a1.974,1.974,0,0,0,.112-3.622A1.39,1.39,0,0,0,230.638-378.565Z" transform="translate(-173.676 416.14)" fill="#000025"/>
    </g>
    <circle id="Ellipse_31" data-name="Ellipse 31" cx="31" cy="31" r="31" transform="translate(428 647)" fill="#000025"/>
    <path id="Icon_material-attach-money" data-name="Icon material-attach-money" d="M19.713,19.252c-4.239-1.1-5.6-2.241-5.6-4.015,0-2.035,1.886-3.455,5.042-3.455,3.324,0,4.556,1.587,4.668,3.921h4.127A7.444,7.444,0,0,0,21.954,8.59V4.5h-5.6V8.534c-3.623.784-6.536,3.137-6.536,6.741,0,4.314,3.567,6.461,8.777,7.712,4.668,1.12,5.6,2.764,5.6,4.5,0,1.288-.915,3.343-5.042,3.343-3.847,0-5.359-1.718-5.565-3.921H9.48c.224,4.09,3.287,6.386,6.872,7.152v4.052h5.6V34.1c3.641-.691,6.536-2.8,6.536-6.629C28.49,22.165,23.952,20.354,19.713,19.252Z" transform="translate(440.078 656.137)" fill="#fff"/>
  </g>
</svg>
