<svg xmlns="http://www.w3.org/2000/svg" width="24" height="25.735" viewBox="0 0 24 25.735">
  <g id="past" transform="translate(-17 511.9)">
    <path id="Path_20" data-name="Path 20" d="M22.576-508.692l-5.55,3.2-.01,6.435L17-492.624l5.485,3.167c3.017,1.745,5.525,3.188,5.576,3.213.065.03.287-.075.895-.427l.809-.468-.191-.226c-.106-.126-.3-.4-.432-.593a1.561,1.561,0,0,0-.287-.367,2.433,2.433,0,0,0-.382.186l-.327.186-.372-.2-.367-.2v-5.113c0-5.068,0-5.113-.1-5.183-.055-.04-2.056-1.2-4.449-2.579l-4.349-2.509v-.865l.357-.211a3.2,3.2,0,0,1,.407-.206c.025,0,2.026,1.146,4.449,2.544a49.2,49.2,0,0,0,4.49,2.5c.231-.106,3.57-2.051,3.57-2.076s-1.981-1.166-4.4-2.559c-2.448-1.413-4.379-2.554-4.354-2.579s.357-.226.734-.442c.608-.352.7-.392.8-.342s7.773,4.475,8.487,4.892l.282.166,1.78-1.031c.98-.568,1.815-1.041,1.86-1.056a1.3,1.3,0,0,1,.437.186l.362.211v.87l-4.414,2.549-4.409,2.544-.015,1.518-.01,1.518.312-.473a7.484,7.484,0,0,1,.865-1.021,7.286,7.286,0,0,1,3.751-2.021,10.156,10.156,0,0,1,2.815.005,8.193,8.193,0,0,1,2.418.96l.2.126-.01-3.731-.015-3.73-5.38-3.112c-2.956-1.709-5.46-3.147-5.561-3.2l-.181-.1Z" transform="translate(0 0)" fill="#fff"/>
    <path id="Path_21" data-name="Path 21" d="M269.756-229.765a5.817,5.817,0,0,0-4.681,4.691,7.285,7.285,0,0,0-.075,1.011,5.725,5.725,0,0,0,3.147,5.138,5.78,5.78,0,0,0,3.353.593,5.826,5.826,0,0,0,4.942-4.6,7.265,7.265,0,0,0,0-2.262,5.814,5.814,0,0,0-4.7-4.575A7.137,7.137,0,0,0,269.756-229.765Zm3.348,4.027a3.987,3.987,0,0,1,.493.543c0,.025-.784.835-1.745,1.795l-1.75,1.745-1.091-1.066-1.1-1.066.528-.553.528-.553.553.553.553.553,1.222-1.222c.669-.669,1.237-1.217,1.267-1.217A4.3,4.3,0,0,1,273.1-225.738Z" transform="translate(-235.531 -267.881)" fill="#fff"/>
  </g>
</svg>
